# xmcd
#
# Track frame offsets: 
#        150
#        27620
#        39505
#        61527
#        74742
#        89307
#        103197
#        118800
#        135937
#        154677
#        176812
#        189792
#
# Disc length: 2747 seconds
#
# Revision: 1
# Processed by: cddbd v1.5.1PL2 Copyright (c) Steve Scherf et al.
# Submitted via: ExactAudioCopy v0.95b3
#
DISCID=a00ab90c
DTITLE=The Jackys - Going back to Bümpliz
DYEAR=1992
DGENRE=Country
TTITLE0=Going back to Bümpliz
TTITLE1=E Rock'n'Roll Beärdigung
TTITLE2=Vom Blues zum Rock'n'Roll
TTITLE3=I kenne e Priester
TTITLE4=I chume eifsch nümm hei
TTITLE5=Christoph's Boogie
TTITLE6=Mini Erinnerige
TTITLE7=Am Chünigshof isch dr Tüüfu los
TTITLE8=Ds Hobby
TTITLE9=Chasch mer aues verbiete, aber
TTITLE10=Tchettchet-Boogie
TTITLE11=Di Usserirdische
EXTD=
EXTT0=
EXTT1=
EXTT2=
EXTT3=
EXTT4=
EXTT5=
EXTT6=
EXTT7=
EXTT8=
EXTT9=
EXTT10=
EXTT11=
PLAYORDER=
